<?xml version="1.0" encoding="UTF-8" standalone="no"?>
<svg
   xmlns:dc="http://purl.org/dc/elements/1.1/"
   xmlns:cc="http://creativecommons.org/ns#"
   xmlns:rdf="http://www.w3.org/1999/02/22-rdf-syntax-ns#"
   xmlns:svg="http://www.w3.org/2000/svg"
   xmlns="http://www.w3.org/2000/svg"
   xmlns:sodipodi="http://sodipodi.sourceforge.net/DTD/sodipodi-0.dtd"
   xmlns:inkscape="http://www.inkscape.org/namespaces/inkscape"
   version="1.0"
   width="1000pt"
   height="640pt"
   viewBox="0 0 1000 640"
   preserveAspectRatio="xMidYMid meet"
   id="svg2"
   inkscape:version="0.91 r13725"
   sodipodi:docname="backgroundatb.svg">
  <metadata
     id="metadata29">
    <rdf:RDF>
      <cc:Work
         rdf:about="">
        <dc:format>image/svg+xml</dc:format>
        <dc:type
           rdf:resource="http://purl.org/dc/dcmitype/StillImage" />
        <dc:title></dc:title>
      </cc:Work>
    </rdf:RDF>
  </metadata>
  <sodipodi:namedview
     pagecolor="#ffffff"
     bordercolor="#666666"
     borderopacity="1"
     objecttolerance="10"
     gridtolerance="10"
     guidetolerance="10"
     inkscape:pageopacity="0"
     inkscape:pageshadow="2"
     inkscape:window-width="640"
     inkscape:window-height="480"
     id="namedview27"
     showgrid="false"
     inkscape:zoom="0.295"
     inkscape:cx="625"
     inkscape:cy="400"
     inkscape:window-x="67"
     inkscape:window-y="27"
     inkscape:window-maximized="0"
     inkscape:current-layer="g19" />
  <!-- kate: space-indent off;
	Copyright (c) 2015 The The Bitcoin Core developers
	Distributed under the MIT software license, see the accompanying
	file COPYING or http://www.opensource.org/licenses/mit-license.php.
	-->
  <style
     type="text/css"
     id="style4"><![CDATA[
		text {
			font-family: "Tuffy";
			font-size: 86px;
			fill: gray;
			text-anchor: middle;
		}
	]]></style>
  <defs
     id="defs6">
    <linearGradient
       id="gradient"
       x1="0%"
       y1="0%"
       x2="100%"
       y2="100%">
      <stop
         offset="0%"
         style="stop-color:rgb(239,239,239);stop-opacity:1"
         id="stop9" />
      <stop
         offset="33%"
         style="stop-color:rgb(239,239,239);stop-opacity:1"
         id="stop11" />
      <stop
         offset="80%"
         style="stop-color:rgb(205,205,205);stop-opacity:1"
         id="stop13" />
      <stop
         offset="100%"
         style="stop-color:rgb(204,204,204);stop-opacity:1"
         id="stop15" />
    </linearGradient>
  </defs>
  <rect
     width="1000"
     height="640"
     style="fill:url(#gradient);stroke-width:0"
     id="rect17" />
  <g
     transform="translate(500,0) scale(0.9, 1)"
     id="g19">
    <text
       x="0"
       y="114"
       id="text21"
       style="font-size:86px;font-family:Tuffy;text-anchor:middle;fill:#808080">ATBcoin-Qt</text>
  </g>
  <g
     transform="translate(0.000000,640.000000) scale(0.100000,-0.100000)"
     fill="#000000"
     stroke="none"
     id="g23">
    <path
       d="M4995 3705 c-24 -23 -25 -29 -25 -165 l0 -140 -306 0 -306 0 -29 -29 c-29 -29 -29 -31 -29 -141 0 -110 0 -112 29 -141 l29 -29 306 0 306 0 0 -140 c0 -136 1 -142 25 -165 16 -17 35 -25 57 -25 29 0 72 32 306 226 180 149 274 233 278 250 13 53 -2 70 -278 299 -235 194 -277 225 -306 225 -22 0 -41 -8 -57 -25z"
       fixlter="url(#glow)"
       id="path25" />
  </g>
</svg>
